<svg width="512" height="512" viewBox="0 0 512 512" fill="none" xmlns="http://www.w3.org/2000/svg">
  <rect width="512" height="512" rx="112" fill="url(#bg)"/>
  <path d="M100 347C100 327.118 116.118 311 136 311H179C198.882 311 215 327.118 215 347V386H100V347Z" fill="white" fill-opacity="0.88"/>
  <path d="M225 267C225 247.118 241.118 231 261 231H304C323.882 231 340 247.118 340 267V386H225V267Z" fill="white" fill-opacity="0.88"/>
  <path d="M350 179C350 159.118 366.118 143 386 143H429C448.882 143 465 159.118 465 179V386H350V179Z" fill="#F3B63F"/>
  <circle cx="385" cy="117" r="47" fill="white" fill-opacity="0.15"/>
  <path d="M149 125H327" stroke="white" stroke-width="34" stroke-linecap="round"/>
  <defs>
    <linearGradient id="bg" x1="256" y1="0" x2="256" y2="512" gradientUnits="userSpaceOnUse">
      <stop stop-color="#14231C"/>
      <stop offset="0.58" stop-color="#1F7A6B"/>
      <stop offset="1" stop-color="#F16F42"/>
    </linearGradient>
  </defs>
</svg>
